<svg fill="none" height="36" viewBox="0 0 36 36" width="36" xmlns="http://www.w3.org/2000/svg">
    <g clip-path="url(#clip0_51502_5480)" id="history_edu_black_24dp 1">
        <g id="Group">
            <g id="Group_2">
                <path
                    d="M13.5 6V8.07C12.255 7.575 10.92 7.32 9.585 7.32C6.9 7.32 4.215 8.34 2.16 10.395L7.155 15.39H8.82V17.055C10.11 18.345 11.79 19.02 13.485 19.095V22.5H9V27C9 28.65 10.35 30 12 30H27C29.49 30 31.5 27.99 31.5 25.5V6H13.5ZM11.835 15.615V12.39H8.415L6.855 10.83C7.71 10.5 8.64 10.32 9.585 10.32C11.595 10.32 13.47 11.1 14.895 12.51L17.01 14.625L16.71 14.925C15.945 15.69 14.925 16.125 13.83 16.125C13.125 16.125 12.435 15.945 11.835 15.615ZM28.5 25.5C28.5 26.325 27.825 27 27 27C26.175 27 25.5 26.325 25.5 25.5V22.5H16.5V18.615C17.355 18.27 18.15 17.76 18.84 17.07L19.14 16.77L23.385 21H25.5V18.885L16.5 9.93V9H28.5V25.5Z"
                    fill="#EF8AD3" id="Vector" />
            </g>
        </g>
    </g>
    <defs>
        <clipPath id="clip0_51502_5480">
            <rect fill="white" height="36" width="36" />
        </clipPath>
    </defs>
</svg>
